<?xml version="1.0" encoding="UTF-8" standalone="no"?>
<!-- Created with Inkscape (http://www.inkscape.org/) -->

<svg
   xmlns:dc="http://purl.org/dc/elements/1.1/"
   xmlns:cc="http://creativecommons.org/ns#"
   xmlns:rdf="http://www.w3.org/1999/02/22-rdf-syntax-ns#"
   xmlns:svg="http://www.w3.org/2000/svg"
   xmlns="http://www.w3.org/2000/svg"
   xmlns:sodipodi="http://sodipodi.sourceforge.net/DTD/sodipodi-0.dtd"
   xmlns:inkscape="http://www.inkscape.org/namespaces/inkscape"
   id="svg3074"
   version="1.1"
   inkscape:version="0.48.3.1 r9886"
   width="270"
   height="270"
   sodipodi:docname="vector_minimap.jpg.svg">
  <metadata
     id="metadata3080">
    <rdf:RDF>
      <cc:Work
         rdf:about="">
        <dc:format>image/svg+xml</dc:format>
        <dc:type
           rdf:resource="http://purl.org/dc/dcmitype/StillImage" />
        <dc:title></dc:title>
      </cc:Work>
    </rdf:RDF>
  </metadata>
  <defs
     id="defs3078" />
  <sodipodi:namedview
     pagecolor="#ffffff"
     bordercolor="#666666"
     borderopacity="1"
     objecttolerance="10"
     gridtolerance="10"
     guidetolerance="10"
     inkscape:pageopacity="0"
     inkscape:pageshadow="2"
     inkscape:window-width="1375"
     inkscape:window-height="876"
     id="namedview3076"
     showgrid="false"
     inkscape:zoom="1.4142136"
     inkscape:cx="272.6834"
     inkscape:cy="72.188507"
     inkscape:window-x="65"
     inkscape:window-y="24"
     inkscape:window-maximized="1"
     inkscape:current-layer="svg3074" />
  <rect
     style="fill:none;fill-opacity:1;stroke:#000000"
     id="rect7956"
     width="270"
     height="270"
     x="0"
     y="-2.7533531e-14" />
  <path
     style="fill:#fff4cd;stroke:#000000;stroke-width:1px;stroke-linecap:butt;stroke-linejoin:miter;stroke-opacity:1;fill-opacity:1"
     d="m 101.29707,255.69038 107.69875,0 c 17.50749,-0.62875 52.52001,-21.08258 53.09623,-53.28452 l 0,-105.627617 -83.9749,-83.974896 -102.803342,0 C 41.961692,15.77164 21.375207,34.568161 16.945607,66.65272 l 0,106.94561 c 27.88407,27.63948 54.15543,57.18489 84.351463,82.09205 z"
     id="path7967"
     inkscape:connector-curvature="0"
     sodipodi:nodetypes="ccccccccc" />
  <path
     style="fill:#c0cdcf;fill-opacity:1;stroke:none"
     d="m 62.755727,45.140043 c -12.486169,-1.19016 -15.194835,6.000396 -18.031223,13.081476 9.545942,13.906433 18.334534,30.084914 28.637825,41.7193 5.142642,5.999061 13.522284,7.227811 20.682873,10.253051 3.721604,0.24815 7.096488,2.22991 10.606598,3.53553 l 20.68288,19.79899 c 6.82981,-0.88893 9.05915,-5.96011 10.78338,-11.49048 -5.86263,-5.89688 -8.13475,-12.64864 -18.38478,-17.5009 -1.28618,-2.77459 -2.86012,-5.405306 -6.01041,-7.247842 L 103.59114,69.004897 87.681241,65.64614 73.185552,70.242334 69.119688,57.867965 z"
     id="path9462"
     inkscape:connector-curvature="0"
     sodipodi:nodetypes="cccccccccccccc" />
  <path
     style="fill:#c0cdcf;fill-opacity:1;stroke:none"
     d="m 220.44054,224.03806 c 6.38322,-0.66858 10.35606,-6.15793 13.70019,-12.9047 l -22.0087,-37.38827 c -1.66921,-2.26884 -3.78304,-4.27091 -6.62912,-5.83363 l -18.47317,-8.57367 c -3.5925,-1.31717 -6.68933,-3.42743 -9.104,-6.62913 l -21.92031,-15.9099 c -6.98886,0.75809 -10.31874,6.22056 -14.14213,11.04854 l 17.76606,14.05375 c 3.69386,2.96075 7.34439,5.94482 8.04334,10.51821 l 10.34143,26.95845 15.82152,1.76777 12.46275,-2.03293 c 1.72071,3.46901 3.97595,6.7853 4.15426,10.69499 z"
     id="path9464"
     inkscape:connector-curvature="0"
     sodipodi:nodetypes="ccccccccccccccc" />
  <path
     id="path8371"
     style="fill:#b4dc92;stroke:#779961;stroke-width:1px;stroke-linecap:butt;stroke-linejoin:miter;stroke-opacity:1;fill-opacity:1"
     d="m 128.78661,61.380753 c -2.2967,4.804754 -3.69234,11.158846 -0.1366,14.131535 3.38605,2.830822 9.3867,3.110471 14.91694,-5.752874 2.30977,22.234774 -25.19861,19.212603 -24.75942,4.801255 0.44328,-8.54752 5.01377,-12.335177 9.97908,-13.179916 z m 4.33054,39.257327 -0.18828,-6.684105 8.56695,0.376569 c 4.27224,4.614836 8.3803,11.473406 13.3682,6.307536 6.66481,-5.87738 -0.85403,-9.27262 -3.29498,-13.55649 2.02771,-0.868811 4.12412,-1.256684 6.40167,-0.376569 2.27283,4.193119 4.02512,5.017414 6.96653,8.096234 -0.73346,7.734155 -12.83473,15.407945 -16.94561,16.474895 -4.87146,-3.73431 -9.50688,-6.90376 -14.87448,-10.63807 z m 49.04812,8.4728 c -3.34263,1.06811 -8.63604,7.26163 -14.21548,12.7092 0.63772,6.22069 0.26819,18.14946 18.73431,10.63808 0.21645,-2.38336 -6.79916,-11.11386 -0.659,-19.76988 -0.54128,-2.71545 -2.95616,-2.18246 -3.85983,-3.5774 z m 18.82846,-0.28243 c -0.98614,6.85922 -4.57881,15.82293 12.7092,11.86193 -0.14515,5.02086 -11.40032,12.53647 -18.35774,5.55439 -6.95741,-6.98209 -0.71409,-16.71205 5.64854,-17.41632 z m -40.57532,20.33473 c 6.17819,14.35 15.07414,17.02964 25.51255,13.08577 -1.08627,8.35929 -3.07326,15.73289 -17.22803,9.7908 -5.78466,-3.93807 -11.12551,-8.54186 -13.93306,-16.94561 0.72309,-2.80538 3.21639,-4.34634 5.64854,-5.93096 z m 25.04184,30.31381 c 0.26349,-0.42817 17.74819,6.22718 20.42887,9.79079 5.25893,-3.76061 0.26521,-17.62928 -4.80125,-22.97071 1.47755,-4.85362 -0.69135,-12.64998 14.30962,-6.58996 1.53644,0.2148 1.19263,-1.72527 1.97699,-4.51883 -6.7226,-1.70343 -10.6965,-3.39519 -23.06486,1.60042 4.39283,15.63965 -3.85467,17.37493 -8.84937,22.68829 z m 2.4477,19.58159 c -4.72767,-3.45642 -16.96576,-13.16226 -24.47699,-3.95398 8.61445,7.17163 5.29234,16.55928 9.97908,24.10042 5.32494,8.28269 11.71498,11.83163 19.29917,10.07322 3.1901,-5.67516 8.20425,-8.15824 14.40376,-8.56694 -0.83111,-13.81657 -7.0344,-14.20271 -12.14435,-17.32218 2.55209,13.00188 -7.7939,19.78593 -15.25105,12.14435 -7.45715,-7.64158 1.3312,-15.11633 8.19038,-16.47489 z m 12.14435,35.30334 c 2.63198,-4.19033 6.60688,-4.88904 10.44979,-5.93096 4.20351,6.98297 12.30065,11.03064 11.29707,19.20502 -3.42482,3.77059 -7.834,5.08028 -12.23849,6.40168 -1.01577,-8.71227 -5.01214,-13.59665 -9.50837,-19.67574 z m 15.15691,-45.84728 c -3.30234,2.50739 -3.93049,5.37134 -3.48327,8.37867 9.47823,17.22182 11.96496,27.41644 22.87657,36.05648 6.79649,-4.82753 11.00424,-14.83253 9.7908,-35.67992 -3.70599,0.15384 -6.63324,1.08643 -7.3431,4.23641 -0.27705,7.53883 -14.67258,23.63702 -21.841,-12.99164 z M 227.91841,180 c -5.27264,-7.82879 -3.45702,-17.1408 -13.17992,-25.13598 6.1518,-5.49836 11.2959,-5.20248 15.43933,0.84728 0.58378,11.08141 -3.33364,15.91088 -2.25941,24.2887 z m 7.90795,-7.06067 c -1.86906,-4.01674 -0.15489,-8.22176 1.22385,-12.23849 2.751,-3.92387 6.07063,-6.79907 2.91841,-13.55649 l -11.48536,-0.18828 c -3.8406,-2.3344 -4.90675,-11.28918 0.37657,-11.10879 4.272,4.54857 9.5287,6.88155 14.78034,9.22594 2.46877,6.72239 -0.0789,14.47588 -0.28243,22.31172 -1.68878,3.36929 -4.66784,4.53461 -7.53138,5.55439 z m -7.06067,-70.04184 c 4.29277,-2.951682 10.9205,0.37656 16.09833,1.69456 -0.17042,10.6425 -1.35485,20.44 -0.18829,32.19665 -5.17252,-0.70165 -9.35676,-3.50339 -12.52092,-8.4728 2.06647,-10.3847 -0.81984,-17.1633 -3.38912,-25.41841 z m -6.49581,25.32426 c 1.99315,-5.50882 7.92413,-10.28403 -1.78871,-20.14644 0,0 0.30366,-5.84762 -1.12971,-9.32008 -4.99392,1.38771 -14.68754,-8.013411 -18.45188,-8.75523 -6.78715,3.555001 -8.06099,8.028888 -12.05021,12.05021 4.52135,5.11504 12.24912,1.43044 20.31262,2.93321 8.72474,1.62601 12.14206,11.49991 13.10789,23.23833 z M 165.17259,87.128661 c 6.92485,0.997398 22.07084,-8.266247 21.08787,-11.297071 0,0 -4.42797,-7.958986 -8.09623,-10.308578 -10.54946,-0.373331 -9.76478,11.333594 -12.99164,21.605649 z m -11.25,-9.273013 c 1.49293,2.75464 3.15205,1.686962 4.8954,-1.317991 3.40314,-10.304341 2.55601,-15.297942 -5.17782,-21.370294 -2.56153,-0.732214 -7.3375,-1.129155 -10.26151,2.541842 6.40687,5.751404 12.27241,11.683254 10.54393,20.146443 z m 22.12344,-19.769874 c -0.59199,-2.342192 -5.82256,-20.264625 -4.61298,-26.171548 0.10312,-0.771817 -3.47035,-1.647749 -4.51882,0.282426 -0.701,3.273946 4.17703,10.247216 -6.40168,16.004185 3.49921,4.313259 6.15966,8.710393 7.15481,13.274058 2.90755,-0.173807 7.11187,-1.135938 8.37867,-3.389121 z m -43.97387,-27.999117 27.82569,-0.199706 c 0.14862,4.779792 3.5787,11.420509 -10.25157,15.643628 -4.69944,0.403776 -8.10957,-9.58912 -17.57411,-10.384706 -0.97027,-1.644526 -0.57829,-3.106266 -1e-5,-5.059216 z M 86.805494,46.196266 c 8.320006,-0.326414 16.300596,1.38365 24.963236,-0.99853 1.38353,3.504161 2.31931,8.294352 7.72196,7.655393 6.74823,-0.842377 7.4946,-7.386096 6.45715,-10.517844 1.69277,-2.09139 12.31629,4.07095 11.91579,5.192353 -1.6581,9.836692 -10.33269,4.696542 -15.51048,6.856569 l -13.51344,3.661275 -10.185,-5.991177 C 93.367681,51.216034 88.914294,49.683061 86.805494,46.196266 z m 20.569706,-15.976472 18.0401,0.133137 c -0.48772,2.39679 -3.29889,5.625884 -11.51638,6.057746 -2.89371,0.124729 -5.20608,-2.638098 -6.52372,-6.190883 z m -26.827158,0.199706 19.371472,0 c 4.381256,6.762016 2.049446,8.707435 0.133136,9.519314 -3.30776,0.535586 -4.807566,0.384285 -6.523724,-2.263333 -4.018344,-0.231869 -8.260673,-0.184926 -12.048923,-0.732255 -2.574012,-2.316035 -2.227745,-5.43144 -0.931961,-6.523726 z m 3.594706,54.91912 c 0.458797,-15.501178 6.792097,-17.015445 14.645099,-14.911373 10.770523,6.667235 -0.03663,19.03892 -7.322549,18.506079 19.278972,12.613664 22.174182,7.775067 25.562352,3.461569 -9.2912,-2.177812 -6.17709,-22.105683 -12.91431,-25.562354 -4.803192,-5.649775 -10.508735,-8.592495 -17.440984,-7.855098 -4.711173,9.442982 -8.925263,6.955979 -13.313726,8.653922 -2.439339,8.370891 6.138126,12.234908 10.784118,17.707255 z M 68.166277,57.64607 c 1.25819,2.491472 12.543564,-1.737488 11.849216,-3.994118 C 73.169777,48.246644 72.311942,41.244568 70.562748,34.480187 58.013346,38.254245 52.735699,38.974325 68.166277,57.64607 z M 35.281374,91.862346 c 1.097087,-13.884121 -0.429366,-29.51727 8.653922,-38.077257 11.200807,2.102249 15.108388,21.415447 25.029805,37.94412 0.290516,6.217176 -1.772519,7.72725 -4.659804,7.588823 C 62.151441,84.650536 57.624197,76.361516 49.793335,76.950973 39.786228,79.65415 48.286232,91.747893 35.281374,91.862346 z M 51.52412,88.533914 c 2.875827,11.823956 -7.760268,21.232296 2.662745,27.825686 0.199115,1.79204 10.130335,-0.15668 10.650981,-2.26333 C 58.044241,112.48859 56.971771,88.289593 51.52412,88.533914 z m -16.109609,76.687066 0,-33.28432 c 18.177259,3.39447 10.306248,14.65979 11.849216,20.63628 1.000916,5.7282 4.83801,7.92155 3.994119,12.64804 z m 31.952943,-18.90549 c 15.843155,-6.96425 12.644366,8.21692 9.452745,11.98235 9.556077,0.41791 13.920407,-8.53933 8.520785,-16.24275 -13.773782,-8.6659 -16.493158,2.68955 -17.97353,4.2604 z M 93.062945,125.2798 c 9.594265,0.75738 21.057675,-5.08957 25.695495,13.18059 3.76899,0.2816 4.88703,-2.46645 6.25745,-4.92608 -5.5448,-12.42625 -13.14871,-20.3482 -24.36412,-20.37 -2.416607,-0.37369 -9.620466,8.71202 -7.588825,12.11549 z m 1.863921,29.02392 c 0.11747,-5.94386 3.277989,-12.45829 -1.730784,-17.44098 7.669278,-8.13773 13.296138,-3.14564 18.506078,4.52667 -0.93409,3.88466 1.21308,6.9305 -12.115489,16.37588 -5.007392,2.79371 -4.4062,-0.82238 -4.659805,-3.46157 z m -5.059215,10.25157 c -4.114824,-3.86526 -29.449953,8.13225 -31.420394,-24.23098 -8.514697,10.43999 1.387448,17.68632 2.130196,28.49137 5.727517,1.79347 11.496513,3.87729 17.574119,8.12138 6.209215,-4.28118 12.942562,-9.85701 11.716079,-12.38177 z m -54.852552,-64.03903 0.133138,22.5002 c 7.027028,2.22904 12.097906,5.36092 14.511961,9.71902 6.457745,-4.94835 5.287567,-8.807 -0.665686,-11.98235 -14.489447,3.86285 -12.354196,-7.34719 -6.790001,-13.18059 3.934479,-6.54971 1.643451,-9.779801 1.065098,-11.316665 -2.973398,-0.728286 -5.281111,2.411301 -8.25451,4.260385 z m 38.077257,-1.730777 c 6.281888,7.261797 14.137971,7.537257 21.83451,8.520787 l -0.532549,3.32843 c -15.999078,4.87596 -6.999434,13.82147 -9.452745,20.90255 -8.329919,4.23334 -16.082745,1.54156 -24.097844,1.99706 l 3.594706,-4.79294 c 13.495547,6.28424 20.812304,-3.99371 8.653922,-11.31667 2.161124,-4.4777 -4.716966,-10.39313 0,-18.639217 z m 64.167054,51.936247 c 0.37657,-0.18828 4.98955,-5.08369 4.98955,-5.08369 4.81879,6.42464 10.97088,11.01598 17.79288,14.6862 0.81278,1.11195 0.39288,4.63059 -5.74268,3.20083 -7.05079,-3.02243 -12.28543,-7.86101 -17.03975,-12.80334 z m -22.12342,21.841 c 5.09781,-6.12368 9.06016,-12.25408 15.62761,-16.66318 4.87058,4.53344 9.72205,9.09744 15.8159,11.67364 2.28087,5.32787 0.21138,8.5624 -4.70711,6.96653 -9.63366,-20.58556 -20.67948,-0.13507 -14.59206,6.02511 0.0745,1.15571 -1.31687,2.20849 -2.41617,1.37076 -2.34218,-5.04869 -8.62524,-7.15378 -9.72817,-9.37286 z m -21.873339,19.61851 c 4.426225,-3.2134 6.846879,-6.67749 9.985299,-10.05186 6.26986,-0.22002 17.34071,-6.34163 8.85362,10.185 0.56044,10.28473 -6.75299,7.23707 -11.2501,10.25157 -2.80869,-3.14076 -5.07945,-6.25298 -7.588819,-10.38471 z m 28.557939,-0.99853 c 2.58898,-3.66324 3.38935,-1.79804 4.06069,0.46598 -0.39748,10.57969 5.16419,13.17458 8.92019,17.44098 0.89786,1.42933 0.69221,2.74189 -1.13166,3.59471 -12.42536,3.18461 -18.56928,-11.00425 -11.84922,-21.50167 z m -13.11402,46.79775 3.99412,0.13314 c -0.0799,-6.00993 -1.47647,-12.53188 4.52667,-16.17618 1.19575,-1.36921 3.26356,-2.3475 -0.46598,-5.92461 -0.98173,-1.98176 -2.07346,-4.50693 -3.72785,-6.65686 -0.62803,-0.78919 -1.21201,-1.59306 -3.395,-1.86392 -1.33779,0.48874 -2.56465,0.20092 -4.06068,1.79735 -0.7291,1.22358 -1.41938,2.48598 -0.93196,4.92608 2.87353,7.61818 4.86911,15.4429 4.06068,23.765 z m 10.31814,0.0666 27.82569,0 c 1.02955,-0.10296 0.46885,-5.36572 -2.19676,-5.19236 -4.68356,-0.73959 -11.69952,-7.25896 -10.51785,-7.85509 -3.71813,-2.39046 -6.59084,-1.68102 -9.25304,-0.19971 -3.96903,2.84745 -6.65769,6.69074 -5.85804,13.24716 z m 35.61422,-0.46598 17.24128,0.13313 c -0.89037,-2.89282 -2.27014,-8.68379 -8.52079,-5.59176 -2.45589,1.0042 -5.02223,1.2352 -7.65539,0.99853 -2.50575,1.23367 -1.41547,2.89041 -1.0651,4.4601 z m -4.19383,-12.04892 c 1.01815,-10.06925 12.53967,-11.21051 14.37883,-1.53108 8.76702,-1.54099 17.70797,-3.88204 25.62892,-1.53108 3.1345,0.027 2.10073,-1.13692 1.66422,-2.1302 -6.10118,-2.5093 -12.88664,-3.65005 -18.0401,-8.0548 -1.81354,-2.24497 -4.43726,-3.15773 -9.25304,-0.46598 -6.76781,3.68433 -13.53562,2.25092 -20.30343,2.92902 -3.35316,6.3373 -2.28702,10.39977 5.9246,10.78412 z m -13.24715,-26.16148 c -1.30812,-11.16115 23.57995,-13.74182 13.24715,6.72344 4.22768,1.54087 7.46042,-0.21971 10.58442,-6.72343 0.41893,-10.72676 1.13181,-19.33482 -15.97647,-15.04452 -8.21391,1.5907 -11.52636,6.1808 -7.8551,15.04451 z m 42.07137,38.07726 19.3049,0.26627 c 3.3979,-2.09797 0.48777,-4.85464 -0.93196,-7.45568 -4.46663,-0.0353 -10.02504,0.37858 -12.5149,-1.33137 -3.08897,-1.1774 -9.52154,-1.66525 -7.45569,3.46156 1.3139,1.42596 1.88124,3.10077 1.59765,5.05922 z M 136.73677,122.21468 c 3.45127,-0.20212 5.07525,-2.23152 6.18719,-4.77297 -13.04452,-13.43149 -19.20202,-12.13676 -23.95324,-12.55114 6.74369,6.18554 12.42795,11.84137 17.76605,17.32411 z" />
  <path
     style="fill:#779961;stroke:none;fill-opacity:1"
     d="M 156.375 29.90625 L 153.59375 29.9375 L 142.71875 40.8125 C 143.20226 41.283009 143.64475 41.743768 144.09375 42.1875 L 156.375 29.90625 z M 148.53125 29.96875 L 145.75 30 L 138.40625 37.34375 C 138.97131 37.69981 139.51909 38.067932 140.03125 38.46875 L 148.53125 29.96875 z M 140.71875 30.03125 L 137.9375 30.0625 L 132.78125 35.21875 C 133.56274 35.325737 134.29936 35.528579 135 35.75 L 140.71875 30.03125 z M 132.0625 30.09375 C 131.94101 30.504057 131.84414 30.876807 131.75 31.25 L 132.90625 30.09375 L 132.0625 30.09375 z M 107.375 30.21875 C 107.56826 30.739831 107.76525 31.238273 108 31.71875 L 109.5 30.21875 L 107.375 30.21875 z M 114.4375 30.28125 L 110.03125 34.6875 C 110.51089 35.173525 111.04404 35.583821 111.59375 35.875 L 117.1875 30.28125 L 114.4375 30.28125 z M 122.15625 30.3125 L 116.28125 36.1875 C 117.62643 36.00281 118.80947 35.739048 119.8125 35.40625 L 124.875 30.34375 L 122.15625 30.3125 z M 83.28125 30.40625 L 79.6875 34 C 79.830927 34.630242 80.117165 35.249393 80.5625 35.875 L 86.03125 30.40625 L 83.28125 30.40625 z M 91.03125 30.40625 L 84.21875 37.21875 C 85.065772 37.286449 85.913882 37.365625 86.78125 37.40625 L 93.78125 30.40625 L 91.03125 30.40625 z M 98.8125 30.40625 L 91.625 37.59375 C 92.258536 37.619617 92.906005 37.651422 93.53125 37.6875 C 93.63851 37.852976 93.737686 37.978585 93.84375 38.125 L 100.53125 31.4375 C 100.33671 31.107562 100.13699 30.762368 99.90625 30.40625 L 98.8125 30.40625 z M 169.59375 31.03125 C 168.87244 30.978347 168.08662 31.108761 167.5 31.53125 C 167.33644 31.64905 167.18765 31.800878 167.0625 31.96875 C 167.00706 32.043124 166.95243 32.102488 166.90625 32.1875 C 166.75854 32.877347 166.88035 33.777653 167.03125 34.75 L 170.53125 31.25 C 170.24896 31.159392 169.94162 31.056764 169.59375 31.03125 z M 160 31.28125 L 146.75 44.53125 C 147.36507 44.961912 147.97014 45.291476 148.59375 45.4375 L 160.3125 33.75 C 160.31153 33.739533 160.31349 33.729211 160.3125 33.71875 C 160.23335 32.878683 160.09004 32.067424 160 31.28125 z M 102.125 34.84375 L 96.84375 40.125 C 97.643032 40.234933 98.584789 40.146849 99.75 39.96875 L 102.34375 37.40625 C 102.34564 37.396419 102.34194 37.384901 102.34375 37.375 C 102.4662 36.705546 102.43281 35.880528 102.125 34.84375 z M 70.75 35.1875 L 59.9375 46 C 60.205871 46.542259 60.54464 47.170457 60.90625 47.78125 L 71.28125 37.40625 C 71.103434 36.667348 70.934291 35.924676 70.75 35.1875 z M 171.3125 35.5 L 167.375 39.4375 C 167.26239 40.806435 166.87879 42.218293 165.90625 43.65625 L 171.53125 38.03125 C 171.41772 37.135799 171.36048 36.294909 171.3125 35.5 z M 64.5625 36.3125 C 60.714202 37.672181 58.490087 39.191086 58.71875 42.1875 L 64.5625 36.3125 z M 158.90625 40.125 L 157.09375 41.96875 C 157.85359 41.363534 158.44637 40.760354 158.90625 40.125 z M 72.3125 41.375 L 62.875 50.8125 C 63.233497 51.322251 63.622491 51.855948 64.03125 52.40625 L 72.96875 43.46875 C 72.727393 42.778414 72.514599 42.075805 72.3125 41.375 z M 126.96875 41.90625 C 126.51704 41.935711 126.1491 42.082326 125.9375 42.34375 C 126.13202 42.930953 126.27121 43.639216 126.3125 44.40625 L 128.65625 42.09375 C 128.01976 41.933745 127.43427 41.875888 126.96875 41.90625 z M 172.25 42.3125 L 163.03125 51.53125 C 163.40861 52.077492 163.78224 52.637799 164.125 53.1875 L 172.71875 44.59375 C 172.55843 43.829446 172.39276 43.071006 172.25 42.3125 z M 132.25 43.5 L 121 54.75 L 122.34375 54.375 C 123.05421 54.078617 123.84128 53.922797 124.65625 53.84375 L 134.03125 44.46875 C 133.45158 44.140661 132.86792 43.798961 132.25 43.5 z M 109.5 45.71875 C 108.41029 45.936422 107.3226 46.103769 106.25 46.21875 L 99.75 52.71875 L 101.5 53.71875 L 109.5 45.71875 z M 90.78125 46.1875 L 88.65625 48.3125 C 89.144754 48.72743 89.669346 49.130611 90.25 49.46875 L 93.4375 46.28125 C 92.555343 46.246359 91.666194 46.205669 90.78125 46.1875 z M 98.28125 46.4375 L 93.78125 50.9375 C 94.469393 51.152551 95.194367 51.362024 95.9375 51.53125 L 101 46.46875 C 100.09038 46.46977 99.18624 46.464258 98.28125 46.4375 z M 137.0625 46.4375 L 129.6875 53.84375 C 130.66949 53.858575 131.62718 53.874383 132.53125 53.71875 L 132.5625 53.71875 L 137.625 48.65625 C 137.71632 48.300474 137.80673 47.936247 137.875 47.53125 C 137.95009 47.320987 137.63099 46.914568 137.0625 46.4375 z M 162.8125 46.75 C 162.13794 47.239169 161.37348 47.712149 160.5 48.1875 C 160.63207 48.350292 160.74537 48.524464 160.875 48.6875 L 162.8125 46.75 z M 74.46875 47 L 66.21875 55.21875 C 66.609394 55.7105 67.013187 56.22955 67.4375 56.75 L 75.5 48.6875 C 75.138203 48.129265 74.769558 47.574499 74.46875 47 z M 112.65625 47.59375 L 104.65625 55.59375 L 106.40625 56.59375 L 113.5 49.5 C 113.1874 48.889835 112.90484 48.250011 112.65625 47.59375 z M 173.625 48.6875 L 165.875 56.40625 C 165.87911 56.414853 165.8709 56.428896 165.875 56.4375 C 166.17582 57.068282 166.47479 57.707282 166.71875 58.34375 L 174.15625 50.90625 C 173.97743 50.193213 173.80702 49.450066 173.625 48.6875 z M 77.6875 51.53125 L 70.875 58.34375 C 71.942573 58.247499 73.169225 57.97528 74.40625 57.5625 L 79.09375 52.875 C 78.594557 52.434427 78.118862 51.989912 77.6875 51.53125 z M 115.8125 52.1875 L 110.375 57.625 L 114.15625 56.59375 L 117.875 52.875 C 117.06658 52.790715 116.39434 52.537562 115.8125 52.1875 z M 44.28125 53.875 L 41.375 56.78125 C 40.204164 58.459419 39.307395 60.329537 38.59375 62.3125 L 46.34375 54.5625 C 45.685424 54.266539 44.995815 54.034161 44.28125 53.875 z M 152 54.8125 L 146.34375 60.46875 C 146.81305 60.923283 147.27264 61.381488 147.71875 61.84375 L 154.0625 55.5 C 153.9164 55.381943 153.77635 55.275085 153.625 55.15625 C 153.14823 55.019966 152.60397 54.901486 152 54.8125 z M 175.1875 54.875 L 168.6875 61.375 C 169.80754 61.248192 171.0184 61.020088 172.15625 60.65625 L 175.75 57.0625 C 175.6068 56.531516 175.43804 55.806196 175.1875 54.875 z M 146.375 55.4375 C 145.28429 55.907826 144.24494 56.626566 143.375 57.71875 C 143.49676 57.828052 143.62868 57.921801 143.75 58.03125 L 146.375 55.4375 z M 49.40625 56.53125 L 36.90625 69.03125 C 36.732204 70.087849 36.559282 71.158559 36.4375 72.25 L 50.8125 57.875 C 50.358525 57.389656 49.885964 56.942298 49.40625 56.53125 z M 156.6875 57.875 L 150.09375 64.46875 C 150.51362 64.994632 150.8491 65.551129 151.21875 66.09375 L 157.96875 59.34375 C 157.58568 58.856008 157.15721 58.360612 156.6875 57.875 z M 87.96875 58.875 C 87.544989 58.892574 87.120766 58.922663 86.6875 58.96875 C 83.67514 65.006664 80.843933 66.160583 78.0625 66.65625 L 73.03125 71.6875 C 73.139281 72.444871 73.338329 73.15946 73.625 73.84375 L 88.59375 58.875 C 88.384216 58.876748 88.180631 58.866213 87.96875 58.875 z M 93.0625 59.40625 L 75.5625 76.90625 C 75.968598 77.399441 76.382356 77.90443 76.84375 78.375 L 95.15625 60.0625 C 94.474956 59.795158 93.773061 59.585791 93.0625 59.40625 z M 53.03125 60.65625 L 36 77.6875 C 35.943459 78.65519 35.887558 79.617571 35.84375 80.59375 L 54.125 62.3125 C 53.760868 61.729552 53.40746 61.1924 53.03125 60.65625 z M 98.46875 61.78125 L 89.53125 70.71875 C 90.661866 70.069225 91.935831 69.751185 93.3125 69.6875 L 100.09375 62.90625 C 99.570431 62.498117 99.01161 62.130761 98.46875 61.78125 z M 159.8125 62.5 L 153.03125 69.28125 C 153.31732 69.944224 153.56171 70.616933 153.75 71.3125 L 160.46875 64.59375 C 160.32468 63.866375 160.09163 63.182706 159.8125 62.5 z M 127.9375 63.34375 L 119.0625 72.21875 C 118.9462 72.956615 118.85528 73.737605 118.8125 74.5625 C 118.80564 74.78755 118.80595 74.999308 118.8125 75.21875 L 126.78125 67.25 C 127.03717 65.943215 127.44386 64.614621 127.9375 63.34375 z M 102.71875 65.28125 L 97.8125 70.1875 C 98.137329 70.262468 98.450712 70.348938 98.78125 70.4375 C 99.105216 70.638044 99.433145 70.820891 99.71875 71.03125 L 104.03125 66.71875 C 103.60317 66.219904 103.16135 65.736526 102.71875 65.28125 z M 55.9375 65.5 L 35.625 85.8125 C 35.583334 86.771761 35.552378 87.735381 35.5 88.6875 L 56.90625 67.28125 C 56.593891 66.66429 56.253387 66.088361 55.9375 65.5 z M 174.625 65.96875 C 172.07062 66.785571 170.4862 68.689906 169.375 71.21875 L 174.625 65.96875 z M 179.25 66.34375 L 167.34375 78.25 C 167.08839 79.413764 166.83105 80.603256 166.5625 81.8125 L 180.625 67.71875 C 180.16727 67.212506 179.70937 66.74651 179.25 66.34375 z M 106.46875 69.28125 L 102.15625 73.59375 C 102.54059 74.190751 102.84045 74.813967 103.03125 75.4375 L 107.34375 71.15625 C 107.08191 70.475621 106.79617 69.846055 106.46875 69.28125 z M 160.5625 69.5 L 154.1875 75.875 C 154.14303 76.523778 154.07643 77.163484 153.9375 77.84375 C 154.0685 78.08547 154.21024 78.284621 154.34375 78.46875 L 159.875 72.9375 C 159.8774 72.928038 159.87261 72.915702 159.875 72.90625 C 160.18391 71.686876 160.4253 70.571996 160.5625 69.5 z M 182.84375 70.5 L 166.15625 87.1875 C 167.10182 87.201213 168.16237 87.06095 169.28125 86.8125 L 183.96875 72.125 C 183.61598 71.596259 183.2462 71.055904 182.84375 70.5 z M 58.53125 70.6875 L 52.15625 77.0625 C 52.887723 77.191128 53.584737 77.412182 54.25 77.71875 L 59.40625 72.5625 C 59.110251 71.92222 58.825175 71.310133 58.53125 70.6875 z M 143.625 70.9375 L 128.875 85.6875 C 129.71439 85.837781 130.55288 85.906662 131.40625 85.90625 L 143.65625 73.65625 C 143.65694 73.645523 143.65558 73.635743 143.65625 73.625 C 143.70898 72.778594 143.67986 71.880582 143.625 70.9375 z M 126.75 72.28125 L 119.78125 79.25 C 120.07146 79.8592 120.41243 80.435412 120.8125 80.96875 L 127.53125 74.25 C 127.15656 73.661343 126.92035 72.987622 126.75 72.28125 z M 86.75 73.5 L 79.4375 80.8125 C 79.92315 81.245598 80.423706 81.659382 80.90625 82.09375 L 85 78.03125 C 85.002454 78.020862 84.997537 78.010365 85 78 C 85.437932 76.157341 86.029359 74.669541 86.75 73.5 z M 108.5 75.03125 L 102.625 80.90625 C 101.32479 84.090754 98.3954 86.889126 95.34375 88.1875 L 93.375 90.15625 C 93.94412 90.514165 94.555146 90.862091 95.09375 91.1875 L 109.03125 77.25 C 108.87121 76.498353 108.67203 75.752611 108.5 75.03125 z M 185.90625 75.21875 L 177.46875 83.65625 C 182.5549 80.974612 186.78432 77.491235 186.25 75.84375 C 186.25 75.84375 186.02495 75.424752 185.90625 75.21875 z M 61 75.96875 L 57.15625 79.8125 C 57.594868 80.259727 58.004572 80.765998 58.40625 81.3125 L 61.84375 77.875 C 61.549285 77.235415 61.288223 76.599028 61 75.96875 z M 130.28125 76.53125 L 123.375 83.4375 C 123.92592 83.824439 124.51276 84.137453 125.125 84.4375 L 132.375 77.1875 C 131.62976 77.080147 130.9293 76.842097 130.28125 76.53125 z M 141.3125 81 L 138.5625 83.75 C 139.59725 83.02624 140.53764 82.117369 141.3125 81 z M 63.46875 81.25 L 60.28125 84.4375 C 60.573444 85.040569 60.85797 85.673054 61.125 86.34375 L 64.34375 83.125 C 64.039361 82.501949 63.763635 81.870329 63.46875 81.25 z M 109.90625 81.375 L 98.25 93.03125 C 98.882848 93.376829 99.477163 93.67378 100.0625 93.96875 L 110.4375 83.59375 C 110.23905 82.865747 110.079 82.130624 109.90625 81.375 z M 84.21875 83.78125 L 83.4375 84.5625 C 83.6791 84.820529 83.931376 85.078879 84.15625 85.34375 C 84.172538 84.793418 84.187848 84.296787 84.21875 83.78125 z M 43.59375 85.625 L 37.5 91.71875 C 41.924431 91.061685 42.937946 88.472396 43.59375 85.625 z M 154.3125 86.28125 C 153.37855 86.409156 152.4598 86.709285 151.5625 87.09375 C 151.78407 87.4826 152.08416 87.842022 152.375 88.21875 L 154.3125 86.28125 z M 66.03125 86.4375 L 62.375 90.09375 C 62.575901 90.791811 62.786628 91.50147 62.96875 92.25 L 67 88.21875 C 66.676146 87.623198 66.342945 87.035645 66.03125 86.4375 z M 158.3125 87.28125 L 154.6875 90.90625 C 155.14103 91.397868 155.57453 91.873002 155.96875 92.375 L 159.375 88.96875 C 159.02611 88.475647 158.67721 87.915453 158.3125 87.28125 z M 111.71875 87.3125 L 103.5 95.53125 C 104.22243 95.818955 104.89365 96.052658 105.53125 96.25 L 112.6875 89.09375 C 112.33844 88.547688 112.00236 87.946946 111.71875 87.3125 z M 201.84375 90.3125 L 189.46875 102.6875 C 189.97202 103.14234 190.52633 103.5206 191.09375 103.8125 L 203.65625 91.25 C 202.97992 90.848344 202.39103 90.540629 201.84375 90.3125 z M 54.125 90.59375 L 52.03125 92.6875 C 52.042162 93.683117 51.955592 94.668346 51.84375 95.625 L 55.03125 92.4375 C 54.743417 91.74798 54.43665 91.127165 54.125 90.59375 z M 68.8125 91.4375 L 63.84375 96.40625 C 63.983002 97.178857 64.094655 97.967908 64.21875 98.78125 L 68.9375 94.0625 C 68.985029 93.367668 69.009465 92.590069 68.96875 91.71875 C 68.913289 91.626354 68.867588 91.530067 68.8125 91.4375 z M 115.1875 91.625 L 109.78125 97.03125 C 111.43534 97.027827 112.66762 96.554001 113.6875 95.875 L 116.53125 93.03125 C 116.69664 92.8198 116.86548 92.617291 117.03125 92.40625 C 116.34883 92.246293 115.7449 91.962908 115.1875 91.625 z M 161.71875 91.625 L 157.53125 95.8125 C 157.60705 97.25051 156.92815 98.814424 154.875 100.625 C 153.49431 102.05496 152.17425 102.54761 150.90625 102.4375 L 144.59375 108.75 C 145.11665 109.13362 145.66314 109.5141 146.1875 109.90625 L 163.125 93 C 162.6184 92.522637 162.17326 92.067847 161.71875 91.625 z M 206.6875 93.21875 L 195.0625 104.84375 C 195.92545 104.91075 196.84978 104.90195 197.78125 104.875 L 208.34375 94.3125 C 207.77211 93.932346 207.23514 93.584962 206.6875 93.21875 z M 135.96875 94.09375 L 133.03125 97.03125 L 133.09375 99.71875 L 138.59375 94.21875 L 135.96875 94.09375 z M 142.4375 95.40625 L 135.53125 102.3125 C 136.07895 102.69289 136.62044 103.06447 137.15625 103.4375 L 143.71875 96.875 C 143.29201 96.376248 142.86493 95.895519 142.4375 95.40625 z M 56.34375 96.125 L 50.625 101.84375 C 50.329464 103.05141 50.051943 104.24697 49.84375 105.375 L 56.96875 98.25 C 56.760685 97.540209 56.553774 96.797793 56.34375 96.125 z M 42.1875 96.15625 C 41.525753 96.193244 40.874126 96.394849 40.25 96.71875 L 35 101.96875 L 35.03125 104.6875 L 43.34375 96.375 C 43.329847 96.340461 43.293656 96.282965 43.28125 96.25 C 42.909575 96.158964 42.540972 96.13649 42.1875 96.15625 z M 211.40625 96.25 L 203.03125 104.625 C 203.93412 104.59643 204.85339 104.58767 205.78125 104.625 L 213.15625 97.25 C 212.57741 96.945505 211.9948 96.602644 211.40625 96.25 z M 164.5625 96.5625 L 151.15625 109.96875 C 155.88819 107.50034 162.84557 102.17647 164.5625 96.5625 z M 216.75 98.6875 L 210.21875 105.21875 C 210.9139 105.41108 211.56361 105.66796 212.1875 105.96875 L 212.21875 105.96875 L 219.375 98.8125 C 219.36662 98.791741 219.35225 98.770594 219.34375 98.75 C 218.57637 98.963241 217.70076 98.913198 216.75 98.6875 z M 146.09375 99.5 L 140.09375 105.5 C 140.62551 105.87478 141.16133 106.28118 141.6875 106.65625 L 147.53125 100.8125 C 147.05071 100.41792 146.56772 99.984361 146.09375 99.5 z M 44.4375 100.28125 L 35.0625 109.65625 L 35.09375 112.375 L 44.09375 103.375 C 44.420953 102.18513 44.485879 101.16609 44.4375 100.28125 z M 75.03125 100.71875 L 71.4375 104.3125 C 71.39198 105.22478 71.43513 106.09167 71.5625 106.9375 L 76.53125 101.96875 C 76.022795 101.5894 75.524664 101.16485 75.03125 100.71875 z M 231.90625 101.78125 C 230.77762 101.91135 229.72455 102.25764 228.78125 102.90625 C 228.94488 103.43199 229.08516 103.92243 229.25 104.4375 L 231.90625 101.78125 z M 58.125 102.125 L 49.71875 110.53125 C 49.865829 111.2317 50.087793 111.90326 50.4375 112.5625 L 58.75 104.25 C 58.530514 103.55159 58.335455 102.83874 58.125 102.125 z M 236.53125 102.1875 L 230.46875 108.25 C 230.68868 108.95497 230.89147 109.67189 231.09375 110.375 L 238.75 102.71875 C 238.01454 102.50383 237.26062 102.35069 236.53125 102.1875 z M 220.3125 102.875 L 215.15625 108.03125 C 215.62491 108.46883 216.05319 108.95591 216.46875 109.46875 L 220.46875 105.46875 C 220.44416 104.66522 220.42221 103.83243 220.3125 102.875 z M 79.625 103.90625 L 72.5625 110.96875 C 72.786934 111.7003 73.016663 112.41735 73.1875 113.09375 L 81.5625 104.71875 C 80.914981 104.46972 80.257753 104.22081 79.625 103.90625 z M 242.53125 103.9375 L 232.09375 114.375 C 232.25229 115.14404 232.38706 115.92731 232.5 116.71875 L 244.6875 104.53125 C 243.99274 104.34934 243.26697 104.16772 242.53125 103.9375 z M 118.96875 104.875 C 119.18641 105.07465 119.37827 105.27019 119.59375 105.46875 L 120.125 104.9375 C 119.73988 104.91835 119.33468 104.90692 118.96875 104.875 z M 124.65625 105.40625 L 122.1875 107.875 C 122.65458 108.31344 123.13638 108.78517 123.59375 109.21875 L 126.84375 105.96875 C 126.07347 105.726 125.34319 105.53614 124.65625 105.40625 z M 85.375 105.90625 L 73.5625 117.71875 C 74.150863 118.09249 74.695943 118.45876 75.1875 118.84375 L 87.6875 106.34375 C 86.914778 106.21234 86.138022 106.08071 85.375 105.90625 z M 92.03125 106.96875 L 77.6875 121.34375 C 78.123298 121.91995 78.467 122.4986 78.71875 123.0625 L 85.59375 116.21875 C 85.611905 116.18719 85.637512 116.15647 85.65625 116.125 C 86.272037 115.09094 87.217364 114.09774 88.59375 113.1875 L 94.53125 107.25 C 93.713888 107.148 92.880699 107.06703 92.0625 106.96875 L 92.03125 106.96875 z M 130.40625 107.4375 L 126.15625 111.6875 C 126.62289 112.13804 127.10494 112.58525 127.5625 113.03125 L 132.15625 108.4375 C 131.54126 108.06267 130.97667 107.73244 130.40625 107.4375 z M 60.0625 107.9375 L 52.71875 115.28125 C 53.157844 115.64627 53.635352 116.02572 54.1875 116.375 C 54.193722 116.431 54.194104 116.48245 54.21875 116.53125 L 60.875 109.875 C 60.58244 109.27531 60.331156 108.61674 60.0625 107.9375 z M 201 108.84375 C 199.85069 108.97097 198.68943 109.38443 197.625 110.03125 L 194 113.65625 C 193.16874 114.97153 192.5793 116.46459 192.375 118.03125 L 200.875 109.53125 C 200.91215 109.30214 200.96764 109.06886 201 108.84375 z M 221.625 109.3125 L 218.4375 112.5 C 218.75244 113.10545 219.03971 113.71531 219.3125 114.375 L 222.875 110.8125 C 222.5014 110.32484 222.08382 109.8281 221.625 109.3125 z M 244.71875 109.5 L 232.84375 121.375 C 232.84506 122.29229 232.8319 123.24584 232.75 124.21875 L 244.59375 112.375 C 244.63663 111.41842 244.68159 110.46134 244.71875 109.5 z M 182.5625 109.5625 L 168.15625 124 C 168.22841 124.79562 168.31054 125.60166 168.4375 126.4375 L 184.40625 110.5 C 183.77345 110.16486 183.10049 109.9626 182.59375 109.5625 L 182.5625 109.5625 z M 135.125 110.46875 L 130.09375 115.5 C 130.55545 115.95759 131.01488 116.42132 131.46875 116.875 L 136.6875 111.65625 C 136.15641 111.22494 135.62806 110.8447 135.125 110.46875 z M 62.875 112.875 L 59 116.75 C 60.379588 116.49506 61.772003 116.10649 62.875 115.625 L 64.53125 113.96875 C 63.939215 113.76174 63.385176 113.39829 62.875 112.875 z M 101.375 113.1875 L 93.28125 121.28125 C 92.813508 122.47595 92.593353 123.62758 92.78125 124.53125 L 103.90625 113.40625 C 103.08286 113.28323 102.24158 113.21605 101.375 113.1875 z M 224.8125 113.90625 L 220.59375 118.125 C 220.79206 118.84712 220.96042 119.58404 221.125 120.34375 L 225.5625 115.90625 C 225.39207 115.26359 225.14618 114.60425 224.8125 113.90625 z M 139.34375 114 L 133.96875 119.375 C 134.42521 119.83773 134.86213 120.32156 135.3125 120.78125 L 140.78125 115.3125 C 140.29226 114.8421 139.81224 114.4277 139.34375 114 z M 38.375 114.09375 L 35.125 117.34375 L 35.125 120.09375 L 38 117.21875 C 37.916586 116.25086 38.062018 115.18396 38.375 114.09375 z M 107.875 114.4375 L 97.03125 125.28125 C 97.994037 125.23592 98.969639 125.18826 99.9375 125.125 L 109.8125 115.25 C 109.18408 114.94491 108.53335 114.67711 107.875 114.4375 z M 184.53125 115.375 L 169.5 130.40625 C 169.77544 131.02625 170.12413 131.59742 170.53125 132.125 L 183.5625 119.09375 C 183.68519 117.87761 183.99754 116.63674 184.53125 115.375 z M 200.03125 115.40625 L 192.90625 122.53125 C 193.14114 123.14855 193.42442 123.77424 193.8125 124.375 L 200.21875 117.96875 C 200.02779 117.18966 199.98747 116.31936 200.03125 115.40625 z M 112.9375 117.125 L 105.0625 125 C 105.89608 125.03863 106.72773 125.13639 107.53125 125.28125 L 114.5 118.3125 C 113.99517 117.88644 113.46496 117.50156 112.9375 117.125 z M 244.375 117.625 L 232.78125 129.21875 C 233.1644 129.764 233.55813 130.29437 233.96875 130.78125 L 244.28125 120.46875 C 244.31171 119.51397 244.33569 118.57241 244.375 117.625 z M 142.0625 119.0625 L 139.78125 121.34375 C 140.74145 120.78654 141.47611 119.99352 142.0625 119.0625 z M 39.75 120.5 L 36.6875 123.5625 C 37.377383 123.80529 38.040634 124.04985 38.6875 124.3125 L 41.65625 121.34375 C 40.884689 121.16424 40.264564 120.86722 39.75 120.5 z M 49 120.75 C 48.199252 120.96348 47.451427 121.12514 46.75 121.25 L 42.09375 125.90625 C 42.708742 126.23609 43.285467 126.55024 43.84375 126.90625 L 49.65625 121.09375 C 49.443853 120.971 49.226386 120.87075 49 120.75 z M 117.0625 120.78125 L 111.28125 126.5625 C 111.84378 126.87157 112.37805 127.25714 112.90625 127.6875 L 118.3125 122.28125 C 117.89463 121.76665 117.4983 121.25661 117.0625 120.78125 z M 202.34375 120.84375 L 196.1875 127 C 196.7197 127.42776 197.2782 127.80716 197.84375 128.09375 L 204.4375 121.5 C 203.60625 121.35811 202.90706 121.14874 202.34375 120.84375 z M 212.84375 120.84375 C 211.63145 121.10083 210.5022 121.31019 209.5 121.4375 L 201.90625 129.0625 C 202.964 129.08471 204.00831 128.92389 205.03125 128.65625 L 212.84375 120.84375 z M 225.5 120.96875 L 221.875 124.59375 C 221.98334 125.40243 222.07515 126.23012 222.15625 127.0625 L 223.28125 125.9375 C 224.08334 124.33541 224.99559 122.73575 225.5 120.96875 z M 84.6875 122.125 L 72.875 133.9375 C 73.797986 133.9559 74.72764 133.95533 75.65625 133.90625 L 85 124.5625 C 84.878771 123.75063 84.767917 122.93022 84.6875 122.125 z M 52.5 123.25 L 46.6875 129.0625 C 47.174786 129.50765 47.649713 129.95797 48.0625 130.4375 L 53.625 124.875 C 53.369191 124.30987 53.010391 123.77876 52.5 123.25 z M 183.875 123.78125 L 173.375 134.28125 C 174.0234 134.53362 174.76585 134.72514 175.59375 134.8125 L 184.4375 125.96875 C 184.21559 125.27207 184.03413 124.54372 183.875 123.78125 z M 120.4375 125.15625 L 115.3125 130.28125 C 115.67731 130.80353 116.00816 131.3745 116.34375 132 L 121.53125 126.8125 C 121.18016 126.23434 120.80304 125.7028 120.4375 125.15625 z M 244.1875 125.5625 L 236.5 133.25 C 237.01846 133.67126 237.54118 134.05747 238.09375 134.40625 L 244.1875 128.3125 C 244.18731 128.3023 244.18769 128.29145 244.1875 128.28125 C 244.17052 127.35794 244.18503 126.4696 244.1875 125.5625 z M 64.4375 128.75 L 61.875 132.15625 L 65.03125 129 C 64.833969 128.91407 64.63754 128.84315 64.4375 128.75 z M 85.375 129.1875 L 81.71875 132.84375 C 82.784413 132.50529 83.854161 132.08181 84.9375 131.53125 C 85.202375 130.76673 85.331257 129.98802 85.375 129.1875 z M 185.8125 129.625 L 181.15625 134.28125 C 182.37183 133.99057 183.69512 133.57075 185.15625 133.03125 L 186.5625 131.625 C 186.41534 131.08016 186.14189 130.42431 185.8125 129.625 z M 123.3125 130.03125 L 117.875 135.46875 C 118.10559 136.12977 118.29296 136.84949 118.5 137.59375 L 124.21875 131.875 C 123.91859 131.24656 123.62455 130.63368 123.3125 130.03125 z M 68.75 130.28125 L 65.46875 133.5625 C 66.336827 133.60458 67.195714 133.66118 68.0625 133.71875 L 71.125 130.65625 C 70.371115 130.5947 69.583375 130.47627 68.75 130.28125 z M 161.21875 130.9375 L 155.375 136.78125 C 155.63914 137.44346 155.92222 138.07388 156.21875 138.6875 L 162.15625 132.75 C 161.84164 132.17008 161.52159 131.56799 161.21875 130.9375 z M 35.9375 132.0625 L 35.40625 132.59375 L 35.40625 135.34375 L 38.1875 132.5625 C 37.493751 132.37224 36.732192 132.22258 35.9375 132.0625 z M 100.09375 132.71875 C 97.973109 132.9447 95.685268 134.22466 93.1875 136.875 C 93.679492 137.36443 94.092522 137.858 94.4375 138.375 L 100.09375 132.71875 z M 244.40625 133.09375 L 241.46875 136.03125 C 242.16784 136.2687 242.8828 136.47916 243.625 136.625 L 244.59375 135.65625 C 244.51827 134.79274 244.45841 133.93782 244.40625 133.09375 z M 207.96875 133.46875 C 207.06241 133.46569 206.09719 133.52279 205.0625 133.65625 L 195.5 143.21875 C 195.56814 144.22042 195.53954 145.15115 195.46875 146 L 207.96875 133.46875 z M 104.25 133.59375 L 95.84375 142 C 95.983712 142.84723 96.024483 143.71569 96 144.59375 L 105.90625 134.6875 C 105.36505 134.26804 104.81047 133.88937 104.25 133.59375 z M 41.84375 133.90625 L 35.40625 140.34375 L 35.40625 143.09375 L 43.59375 134.90625 C 43.072998 134.55493 42.497355 134.22031 41.84375 133.90625 z M 212.46875 134 L 208.78125 137.6875 C 209.44662 137.79787 210.19416 137.99502 211 138.21875 L 214.71875 134.5 C 213.95947 134.30673 213.21238 134.15249 212.46875 134 z M 198.40625 135.28125 C 197.14347 135.69992 195.79822 136.18116 194.3125 136.78125 C 194.51387 137.49818 194.69397 138.18357 194.84375 138.84375 L 198.40625 135.28125 z M 164.0625 135.84375 L 158.03125 141.875 C 158.39886 142.436 158.76067 142.98095 159.15625 143.5 L 165.25 137.40625 C 164.84694 136.90931 164.45088 136.40374 164.0625 135.84375 z M 228.375 135.84375 C 226.40984 135.99452 225.4636 137.54889 225.28125 139.46875 L 228.875 135.875 C 228.86987 135.86954 228.88013 135.84921 228.875 135.84375 C 228.7099 135.83811 228.52781 135.83203 228.375 135.84375 z M 108.4375 137.15625 L 95.34375 150.25 C 95.185549 151.29962 95.038347 152.342 94.96875 153.375 L 109.71875 138.65625 C 109.71364 138.6497 109.72387 138.63154 109.71875 138.625 C 109.30315 138.09341 108.86139 137.63451 108.4375 137.15625 z M 216.90625 137.3125 L 214.75 139.46875 C 214.97609 139.55674 215.17186 139.62406 215.40625 139.71875 C 216.50189 139.87192 216.63196 138.87897 216.90625 137.3125 z M 46.15625 137.375 L 35.40625 148.125 L 35.40625 150.875 L 47.09375 139.1875 C 46.868251 138.56583 46.553173 137.95684 46.15625 137.375 z M 231.46875 138.28125 L 226 143.75 C 226.26554 144.39256 226.57702 145.00353 226.96875 145.53125 L 233.03125 139.46875 C 232.50274 139.09314 231.97929 138.69729 231.46875 138.28125 z M 76.125 138.84375 C 75.972925 138.8481 75.834109 138.86308 75.6875 138.875 L 68.875 145.6875 C 70.308126 145.14351 71.559372 144.82715 72.65625 144.65625 L 78.28125 139.03125 C 77.505899 138.88696 76.789775 138.82473 76.125 138.84375 z M 167.65625 140 L 161.5 146.15625 C 161.9534 146.62289 162.43187 147.06484 162.90625 147.5 L 169.1875 141.21875 C 168.66563 140.85442 168.15961 140.44382 167.65625 140 z M 82.0625 140.25 L 77.125 145.1875 C 77.712817 145.53157 78.18333 145.98791 78.53125 146.53125 L 83.875 141.1875 C 83.247545 140.83787 82.641025 140.51445 82.0625 140.25 z M 58.46875 140.5625 L 57.5625 141.46875 C 56.332827 143.21818 55.628862 144.8893 55.28125 146.5 L 58.6875 143.09375 C 58.596903 142.28364 58.525804 141.43688 58.46875 140.5625 z M 236.09375 141.40625 L 230.5 147 L 233.21875 147.03125 L 237.875 142.375 C 237.27624 142.0665 236.6811 141.74044 236.09375 141.40625 z M 111.625 141.71875 L 95.40625 157.9375 C 95.719273 158.58927 96.299407 158.94295 97.40625 158.6875 L 111.15625 144.9375 C 111.37739 143.80785 111.40971 142.7897 111.625 141.71875 z M 172.5 142.9375 L 165.625 149.8125 C 166.14506 150.21322 166.68601 150.58705 167.21875 150.96875 L 174.625 143.5625 C 173.90973 143.41184 173.18991 143.1971 172.5 142.9375 z M 182.6875 143.25 C 181.56565 143.52655 180.45411 143.71945 179.375 143.8125 L 170.46875 152.71875 C 171.17805 152.97819 171.88855 153.21969 172.53125 153.40625 L 182.6875 143.25 z M 47.65625 143.625 L 35.40625 155.875 L 35.40625 158.625 L 47.40625 146.625 C 47.524401 145.64211 47.620844 144.63274 47.65625 143.625 z M 86.34375 143.71875 L 79.40625 150.65625 C 79.364113 151.75305 79.17173 152.8718 78.875 153.9375 L 87.15625 145.65625 C 86.950435 145.01333 86.674034 144.36089 86.34375 143.71875 z M 241.25 144 L 238.125 147.125 L 239.96875 147.15625 C 240.06606 147.36485 240.16482 147.54865 240.25 147.75 L 243.15625 144.84375 C 242.51886 144.55902 241.88489 144.29036 241.25 144 z M 201.34375 145.125 L 186.71875 159.75 C 187.26599 159.92036 187.91559 160.16335 188.75 160.46875 L 201.9375 147.28125 C 201.65733 146.93379 201.37613 146.61021 201.09375 146.3125 C 201.20675 145.9413 201.26409 145.52311 201.34375 145.125 z M 185.4375 145.5 L 176.78125 154.15625 C 177.96918 154.20729 178.98812 154.0909 179.875 153.8125 L 184.3125 149.40625 C 184.32145 149.38498 184.3349 149.36513 184.34375 149.34375 C 184.82356 148.18509 185.16863 146.88949 185.4375 145.5 z M 59.40625 147.40625 L 55.28125 151.53125 C 55.42005 152.2674 55.586664 153.01745 55.8125 153.75 L 59.9375 149.625 C 59.735472 148.92299 59.573278 148.17908 59.40625 147.40625 z M 144.15625 148 L 139.34375 152.8125 C 139.80217 153.26706 140.24758 153.74038 140.71875 154.1875 L 145.46875 149.4375 C 145.02291 148.96299 144.58512 148.49784 144.15625 148 z M 244.5 148.53125 L 241.21875 151.8125 C 241.26727 153.02623 241.07392 154.10912 240.6875 155.09375 L 244.6875 151.09375 C 244.66403 150.22757 244.61934 149.37405 244.5 148.53125 z M 87.59375 150.25 L 79.71875 158.125 C 84.227061 157.33266 87.079169 154.14895 87.59375 150.25 z M 203.96875 150.25 L 192.34375 161.875 C 192.97913 162.13433 193.61695 162.40297 194.28125 162.6875 L 204.9375 152.03125 C 204.62648 151.41292 204.30497 150.8241 203.96875 150.25 z M 221.40625 151.09375 C 219.673 151.4305 217.81732 152.36737 215.875 153.90625 L 215.65625 154.09375 L 214.8125 154.9375 C 215.33403 155.3692 215.8237 155.77987 216.28125 156.21875 L 221.40625 151.09375 z M 225.84375 151.65625 L 218.625 158.875 C 219.03545 159.40624 219.43479 159.93127 219.78125 160.46875 L 227.53125 152.71875 C 226.98824 152.2772 226.4153 151.93373 225.84375 151.65625 z M 47.125 151.90625 L 35.40625 163.625 L 35.40625 165.21875 L 36.5625 165.21875 L 47.625 154.15625 C 47.478239 153.65406 47.348759 153.12769 47.25 152.5625 C 47.193963 152.34545 47.157902 152.13662 47.125 151.90625 z M 147.96875 151.9375 L 143.34375 156.5625 C 143.83925 156.98566 144.32976 157.4043 144.84375 157.8125 L 149.46875 153.1875 C 148.97481 152.7699 148.44765 152.37578 147.96875 151.9375 z M 61.28125 153.28125 L 57.1875 157.375 C 57.450661 158.02079 57.699105 158.68616 57.96875 159.34375 L 62.21875 155.09375 C 61.890912 154.52569 61.574531 153.92547 61.28125 153.28125 z M 229.90625 155.34375 L 221.53125 163.71875 C 221.82463 164.3651 222.09867 165.00738 222.34375 165.65625 L 230.25 157.75 C 230.24995 157.73925 230.25006 157.72952 230.25 157.71875 C 230.24636 157.07261 230.22399 156.41134 230.1875 155.71875 C 230.09675 155.58625 229.99796 155.47073 229.90625 155.34375 z M 152.25 155.40625 L 147.75 159.90625 C 148.29573 160.2761 148.86799 160.62086 149.4375 160.96875 L 153.84375 156.5625 C 153.30155 156.19133 152.77893 155.79567 152.25 155.40625 z M 206.4375 155.5625 L 197.75 164.25 C 198.38061 164.54713 199.02367 164.82259 199.625 165.125 L 207.125 157.625 C 206.92262 156.93871 206.6896 156.24423 206.4375 155.5625 z M 130.75 155.90625 C 125.21662 159.62112 121.54076 164.56233 117.46875 169.6875 L 131 156.15625 C 130.91397 156.07616 130.83604 155.98633 130.75 155.90625 z M 244.4375 156.34375 L 235.59375 165.1875 C 235.2997 166.28804 235.09102 167.39953 235.03125 168.5 L 244.09375 159.4375 C 244.22207 158.39756 244.33364 157.3664 244.4375 156.34375 z M 49.125 157.6875 L 41.59375 165.21875 L 44.34375 165.21875 L 50.0625 159.5 C 49.760092 158.9175 49.451461 158.31258 49.125 157.6875 z M 64.28125 158.03125 L 59.34375 162.96875 C 59.575762 163.66421 59.787068 164.37242 59.96875 165.09375 L 65.65625 159.40625 C 65.184498 158.99192 64.721585 158.52655 64.28125 158.03125 z M 133.625 158.53125 L 117.4375 174.71875 C 117.94243 175.07744 118.48494 175.4394 119.0625 175.84375 L 135.0625 159.84375 C 134.57743 159.41615 134.10457 158.96765 133.625 158.53125 z M 156.90625 158.53125 L 152.65625 162.78125 C 153.19369 163.04318 153.75284 163.29134 154.3125 163.53125 C 154.41434 163.55498 154.49504 163.57271 154.59375 163.59375 L 158.65625 159.53125 C 158.06807 159.19884 157.48304 158.87932 156.90625 158.53125 z M 68.625 161.4375 L 61.09375 168.96875 C 61.780578 169.18605 62.467536 169.42574 63.15625 169.65625 L 70.53125 162.28125 C 69.890888 162.03859 69.243536 161.76442 68.625 161.4375 z M 208.03125 161.75 L 202.84375 166.90625 C 203.46935 167.28482 204.02251 167.64444 204.5 168 L 208.09375 164.40625 C 208.14615 163.56906 208.13789 162.68096 208.03125 161.75 z M 137.78125 162.125 L 134.125 165.78125 C 134.73588 165.94721 135.36202 166.23513 136 166.65625 L 139.34375 163.3125 C 138.81885 162.92248 138.29343 162.53538 137.78125 162.125 z M 229.875 163.15625 L 223.59375 169.4375 C 223.80702 170.1384 224.03759 170.83579 224.25 171.53125 L 229.375 166.40625 C 229.57369 165.37579 229.72769 164.29733 229.875 163.15625 z M 51.34375 163.21875 L 49.34375 165.21875 L 51.25 165.21875 C 51.378614 164.49841 51.40598 163.8429 51.34375 163.21875 z M 74.5 163.34375 L 66.84375 171 C 67.499798 171.25486 68.152513 171.49882 68.8125 171.78125 L 76.96875 163.625 C 76.152282 163.56277 75.32608 163.47946 74.5 163.34375 z M 84.6875 163.65625 C 83.807698 163.66958 82.877665 163.69834 81.875 163.71875 L 72.21875 173.375 C 72.81345 173.67916 73.400556 174.00639 74 174.34375 L 84.6875 163.65625 z M 89.1875 164.15625 L 77.09375 176.25 C 77.443862 176.48176 77.804118 176.6916 78.15625 176.9375 C 79.368883 176.1014 80.59183 175.21498 81.78125 174.3125 L 89.75 166.34375 C 89.759047 166.32287 89.772643 166.30197 89.78125 166.28125 C 90.055035 165.62198 90.104966 165.03589 89.875 164.5625 C 89.6967 164.39501 89.441859 164.26907 89.1875 164.15625 z M 243.5 165.03125 L 235.75 172.78125 C 235.77331 172.83405 235.78796 172.88477 235.8125 172.9375 C 237.52121 172.32898 239.28896 171.64951 240.78125 170.5 L 242.40625 168.875 C 242.74931 168.42942 243.06477 167.93159 243.34375 167.375 C 243.36405 166.59336 243.44035 165.81031 243.5 165.03125 z M 142.3125 165.34375 L 138.59375 169.0625 C 138.97484 169.53412 139.36794 170.07426 139.75 170.65625 L 144.03125 166.375 C 143.44176 166.05772 142.88113 165.69442 142.3125 165.34375 z M 146.9375 168.5 L 141.5625 173.875 C 141.67079 174.09547 141.76704 174.30055 141.875 174.53125 C 142.38789 174.69766 142.86327 174.81053 143.3125 174.875 L 147.4375 170.75 C 147.36637 170.05997 147.2244 169.31893 146.9375 168.5 z M 215.46875 169.78125 L 211.78125 173.46875 C 211.57428 174.40472 211.55615 175.36684 211.65625 176.34375 L 215.96875 172.03125 C 215.80316 171.31259 215.628 170.54821 215.46875 169.78125 z M 170.15625 171.3125 C 168.66279 171.46976 167.20477 171.95611 165.84375 172.875 L 163.53125 175.1875 C 164.04828 175.62378 164.50334 176.07968 164.9375 176.53125 L 170.15625 171.3125 z M 174.75 171.71875 L 167.15625 179.3125 C 167.16066 179.31964 167.15185 179.33661 167.15625 179.34375 C 167.51557 179.92733 167.81664 180.52705 168.09375 181.125 L 176.84375 172.375 C 176.15854 172.11562 175.44626 171.89808 174.75 171.71875 z M 228.125 172.65625 L 225.5 175.28125 C 225.75011 175.92662 226.04309 176.55478 226.34375 177.1875 L 227.78125 175.75 C 227.84087 174.69466 227.95999 173.66779 228.125 172.65625 z M 180.25 173.96875 L 169.375 184.84375 C 169.56245 185.56605 169.76158 186.30349 169.90625 187.03125 L 182 174.96875 C 181.43422 174.62402 180.84916 174.29279 180.25 173.96875 z M 125.625 174.28125 L 121.875 178.03125 C 122.35148 178.46331 122.79339 178.93983 123.21875 179.4375 L 125.65625 177 C 125.52856 176.13086 125.51267 175.21021 125.625 174.28125 z M 217 176.03125 L 213.28125 179.75 C 213.60906 180.36711 213.90736 180.96402 214.21875 181.5625 L 217.625 178.15625 C 217.41024 177.48191 217.20786 176.76694 217 176.03125 z M 185.03125 176.96875 L 170.6875 191.3125 C 170.83032 192.06577 171.00601 192.82064 171.1875 193.5625 L 177.15625 187.59375 C 178.07716 184.35331 181.22223 181.66543 184.59375 180.15625 L 186.625 178.125 C 186.12747 177.75944 185.61766 177.382 185.03125 176.96875 z M 241.40625 177.65625 C 239.1845 178.17265 237.56607 179.26542 237.0625 181.5 C 237.05602 181.67639 237.02167 181.87752 237 182.0625 L 241.40625 177.65625 z M 244.5 179.5625 L 223.8125 200.25 C 224.15166 200.82728 224.52447 201.381 224.875 201.9375 L 244.5625 182.25 C 244.54749 181.37614 244.53704 180.48043 244.5 179.5625 z M 127.1875 180.46875 L 125.46875 182.1875 C 126.412 182.36931 127.34249 181.51244 127.28125 180.5625 C 127.2506 180.53149 127.21728 180.50048 127.1875 180.46875 z M 112.1875 180.84375 C 111.89296 180.83966 111.57148 180.88018 111.25 180.90625 L 95.90625 196.25 C 96.282047 196.79494 96.65072 197.35681 97.03125 197.875 L 113.78125 181.125 C 113.33255 180.94381 112.78869 180.8521 112.1875 180.84375 z M 218.9375 181.84375 L 215.90625 184.875 C 216.22045 185.49842 216.51241 186.11598 216.8125 186.71875 L 219.78125 183.75 C 219.49997 183.15359 219.21185 182.52109 218.9375 181.84375 z M 105.25 181.90625 C 104.55387 182.01715 103.87487 182.10307 103.25 182.125 C 100.11158 185.49937 97.676225 188.9741 93.25 192.1875 C 93.474786 192.55762 93.715985 192.86424 93.9375 193.21875 L 105.25 181.90625 z M 150.34375 183.34375 C 149.34219 183.4513 148.25331 183.62835 147.0625 183.875 L 135.90625 195.03125 C 136.02453 195.72832 136.19958 196.47973 136.4375 197.25 L 137.625 196.0625 C 138.37106 194.20255 139.93324 192.76891 141.78125 191.875 C 141.80267 191.86464 141.82225 191.85396 141.84375 191.84375 L 150.34375 183.34375 z M 194.96875 183.375 C 195.07871 183.9352 195.15542 184.49479 195.21875 185.03125 L 196.1875 184.0625 C 195.7791 183.84497 195.36693 183.61808 194.96875 183.375 z M 155.28125 183.4375 L 147.75 190.96875 C 148.48757 191.09831 149.17597 191.31894 149.8125 191.65625 L 157.3125 184.15625 C 156.72816 183.85561 156.04731 183.59584 155.28125 183.4375 z M 115.03125 184.875 L 99.25 200.65625 C 99.662609 201.15482 100.06546 201.66257 100.5 202.15625 L 113.6875 188.96875 C 114.39943 187.30431 114.82842 185.95138 115.03125 184.875 z M 199.46875 185.78125 L 195.125 190.125 C 194.82949 191.80646 194.25165 193.26805 193.5 194.5 L 201.15625 186.84375 C 200.60787 186.45709 200.04442 186.09968 199.46875 185.78125 z M 139.84375 186.09375 C 138.33355 186.94363 137.2219 188.05486 136.53125 189.40625 L 139.84375 186.09375 z M 159.84375 186.625 L 152.25 194.21875 C 152.54742 194.83854 152.77406 195.53699 152.875 196.34375 L 160.625 188.59375 C 160.4338 187.87319 160.17196 187.22209 159.84375 186.625 z M 221.53125 187 L 218.5 190.03125 C 218.80792 190.65483 219.1076 191.2737 219.40625 191.875 L 222.75 188.53125 C 222.35768 188.07011 221.91857 187.58313 221.53125 187 z M 244.53125 187.28125 L 226.875 204.9375 C 227.26065 205.4634 227.68388 205.95942 228.09375 206.46875 L 244.40625 190.15625 C 244.47306 189.233 244.49631 188.26825 244.53125 187.28125 z M 203.75 189.28125 L 184.15625 208.875 C 184.87462 209.13544 185.59852 209.29641 186.34375 209.4375 L 204.84375 190.9375 C 204.51173 190.31732 204.13159 189.77751 203.75 189.28125 z M 125.3125 190.125 L 119.78125 195.65625 C 119.44267 196.79274 119.2205 197.93184 119.125 199.0625 L 125.875 192.3125 C 125.87807 192.08861 125.86631 191.88768 125.875 191.65625 C 125.71014 191.10029 125.51749 190.5569 125.3125 190.125 z M 225.46875 190.84375 L 221.09375 195.21875 C 221.41049 195.83431 221.71524 196.43875 222.03125 197.03125 L 227.53125 191.53125 C 226.85143 191.44301 226.16733 191.21889 225.46875 190.84375 z M 177.46875 192.28125 L 172.4375 197.3125 C 172.71273 197.92653 173.01153 198.5316 173.375 199.125 L 178.46875 194.03125 C 178.04382 193.43572 177.71721 192.86709 177.46875 192.28125 z M 161.15625 193.0625 L 152.125 202.09375 C 151.72441 203.32044 151.17174 204.63951 150.4375 206.09375 C 150.55217 206.13554 150.66803 206.15059 150.78125 206.1875 L 161.15625 195.8125 C 161.17979 194.8632 161.17902 193.94375 161.15625 193.0625 z M 206.1875 194.59375 L 191.25 209.53125 C 191.73469 209.46155 192.22393 209.39598 192.71875 209.28125 C 194.9485 205.31454 198.04984 202.91693 201.84375 201.6875 L 206.6875 196.84375 C 206.55206 196.03712 206.36931 195.28445 206.1875 194.59375 z M 111.9375 195.71875 L 107.09375 200.5625 C 109.37475 199.96333 111.33406 198.96507 111.9375 195.71875 z M 243.71875 195.875 L 230.4375 209.15625 C 230.87906 209.61572 231.33783 210.08274 231.8125 210.53125 L 243 199.34375 C 243.27524 198.25664 243.51102 197.09713 243.71875 195.875 z M 180.90625 196.59375 L 175.4375 202.0625 C 175.84978 202.58655 176.2634 203.09096 176.6875 203.5625 L 182.53125 197.71875 C 181.97524 197.42014 181.44726 197.02736 180.90625 196.59375 z M 126.28125 196.90625 L 119.40625 203.78125 C 119.56451 204.50581 119.80259 205.2027 120.0625 205.875 L 126.875 199.0625 C 126.63939 198.39946 126.43825 197.67809 126.28125 196.90625 z M 190.25 197.75 C 189.09713 198.40234 187.82549 198.75212 186.5 198.75 L 179.25 206 C 179.76411 206.42182 180.28239 206.8368 180.8125 207.1875 L 190.25 197.75 z M 128.53125 202.40625 L 121.84375 209.09375 C 122.24747 209.60895 122.70424 210.06834 123.1875 210.5 L 129.75 203.9375 C 129.33554 203.45586 128.90449 202.95203 128.53125 202.40625 z M 158.65625 203.375 L 156.46875 205.53125 C 157.21702 205.01198 157.94887 204.29862 158.65625 203.375 z M 132.21875 206.5 L 126.3125 212.40625 C 126.99213 212.66948 127.70796 212.88122 128.46875 213 L 133.59375 207.875 C 133.13549 207.41816 132.69206 206.95289 132.21875 206.5 z M 109.625 207.5 C 108.85073 207.78287 108.11739 207.81528 107.34375 208.09375 L 104.9375 210.5 C 104.58459 211.31491 104.38581 212.28048 104.5625 213.625 L 110.53125 207.65625 C 110.26245 207.5902 109.96529 207.54222 109.625 207.5 z M 239.3125 208.03125 L 234.5 212.84375 C 234.53544 212.87199 234.55813 212.9093 234.59375 212.9375 C 236.36099 211.68223 237.94511 210.08622 239.3125 208.03125 z M 210.5 208.4375 C 209.28953 208.76569 208.06556 209.05757 206.875 209.4375 L 200.84375 215.46875 C 201.24295 216.00559 201.61324 216.53638 202 217.0625 L 210.5625 208.5 C 210.54758 208.47544 210.51483 208.46213 210.5 208.4375 z M 113.375 209.8125 L 105.78125 217.40625 C 106.01721 218.10511 106.22195 218.79683 106.4375 219.5 L 114.4375 211.5 C 114.10596 210.93326 113.76444 210.35521 113.375 209.8125 z M 170 210.15625 C 169.0118 210.14773 167.87167 210.39809 166.53125 210.96875 L 159.875 217.625 C 160.5116 217.82687 161.11957 218.14723 161.6875 218.5625 L 170.09375 210.15625 C 170.06125 210.15541 170.03284 210.15653 170 210.15625 z M 135.15625 211.3125 L 133.9375 212.53125 C 134.56959 212.18364 134.96526 211.77095 135.15625 211.3125 z M 212.65625 211.40625 L 204.09375 219.96875 C 204.46297 220.51648 204.8431 221.066 205.1875 221.625 L 213.90625 212.90625 C 213.47328 212.4172 213.0706 211.91631 212.65625 211.40625 z M 173.53125 211.71875 L 163.9375 221.3125 C 164.23533 221.91814 164.46996 222.59576 164.65625 223.34375 L 175 213 C 174.68958 212.76492 174.36232 212.53751 174.0625 212.28125 C 173.89729 212.07674 173.71095 211.89943 173.53125 211.71875 z M 158.46875 214 C 157.44001 214.18115 156.43499 214.26931 155.40625 214.34375 L 145.3125 224.4375 C 145.89315 224.72718 146.57987 224.94572 147.375 225.125 L 153.34375 219.1875 L 158.46875 214 z M 149.59375 214.53125 C 148.86259 214.53926 148.13741 214.56952 147.40625 214.59375 L 142.875 219.125 C 142.6919 220.1272 142.70339 221.02506 142.9375 221.8125 L 150.21875 214.53125 C 150.0099 214.53317 149.8026 214.52896 149.59375 214.53125 z M 116.15625 214.78125 L 107.53125 223.40625 C 107.70859 224.14806 107.88507 224.90841 108.03125 225.65625 L 117.21875 216.46875 C 117.07477 216.31915 116.9165 216.15969 116.75 216 C 116.56616 215.62889 116.35078 215.18444 116.15625 214.78125 z M 178.0625 214.96875 L 170 223.03125 C 171.11741 222.82234 172.23077 222.62605 173.34375 222.4375 L 179.90625 215.875 C 179.2764 215.59169 178.67139 215.29396 178.0625 214.96875 z M 216.28125 215.53125 L 206.9375 224.875 C 207.23157 225.49285 207.52578 226.12623 207.78125 226.78125 L 217.5625 217 C 217.14166 216.51462 216.72482 216.01583 216.28125 215.53125 z M 183.5 217.28125 L 179.125 221.65625 C 180.11095 221.56684 181.09089 221.49221 182.0625 221.46875 L 185.53125 218 C 184.84767 217.76986 184.17755 217.52345 183.5 217.28125 z M 189.25 219.28125 L 186.8125 221.71875 C 187.59852 221.82061 188.38672 221.94729 189.15625 222.125 L 191.25 220.03125 C 190.58739 219.77408 189.92305 219.51756 189.25 219.28125 z M 219.78125 219.8125 L 208.96875 230.625 C 209.14012 231.36531 209.28519 232.13562 209.40625 232.9375 L 220.78125 221.5625 C 220.4911 220.95916 220.15706 220.38379 219.78125 219.8125 z M 118.8125 219.90625 L 115.3125 223.4375 C 115.84868 222.89866 116.46836 222.39304 117.21875 221.9375 C 117.794 221.2788 118.57616 220.71687 118.8125 219.90625 z M 115.3125 223.4375 L 108.65625 230.0625 C 108.74132 230.9146 108.81011 231.76347 108.84375 232.625 L 112.75 228.71875 C 113.07835 226.75085 113.80906 224.94842 115.3125 223.4375 z M 130.65625 223.5625 L 118.90625 235.3125 C 118.87985 236.13405 118.92405 237.01204 119.03125 237.9375 L 132.75 224.21875 C 132.0236 223.88118 131.32289 223.68096 130.65625 223.5625 z M 221.84375 225.5 L 215.25 232.09375 C 217.6282 231.08941 219.8825 229.74985 221.8125 227.625 C 221.90446 226.87598 221.89461 226.18515 221.84375 225.5 z M 135.09375 226.90625 L 123.9375 238.0625 L 126.6875 238.0625 L 136.5 228.25 C 135.95507 227.76725 135.48024 227.33117 135.09375 226.90625 z M 180.875 228.15625 C 180.69327 228.15775 180.51963 228.17468 180.34375 228.1875 L 177.34375 231.1875 C 177.40235 231.55323 177.47561 231.92671 177.65625 232.375 C 177.85839 232.59438 178.05233 232.83121 178.21875 233.0625 L 182.9375 228.34375 C 182.25427 228.22346 181.55376 228.15066 180.875 228.15625 z M 186.6875 229.625 L 179.3125 237 C 179.30073 237.14555 179.3028 237.28869 179.28125 237.4375 L 181.59375 237.46875 L 188.96875 230.09375 C 188.13722 229.99774 187.36755 229.83243 186.6875 229.625 z M 196.5625 230.25 C 195.64845 230.2538 194.72315 230.27798 193.78125 230.28125 L 186.53125 237.53125 L 189.21875 237.59375 L 196.5625 230.25 z M 139.3125 230.4375 L 131.6875 238.0625 L 134.4375 238.0625 L 141.03125 231.46875 C 140.45421 231.15314 139.87022 230.81024 139.3125 230.4375 z M 163.875 231.90625 C 163.70373 231.98056 163.55417 232.03637 163.375 232.125 C 162.27564 232.57452 161.13971 232.86419 160 233.03125 L 155.4375 237.59375 L 158.15625 237.625 L 163.875 231.90625 z M 168.8125 231.96875 L 163.125 237.65625 L 165.84375 237.6875 L 170.15625 233.375 C 169.79399 232.81482 169.33829 232.34212 168.8125 231.96875 z M 199.15625 232.65625 L 194.15625 237.65625 L 196.875 237.6875 L 200.03125 234.53125 C 199.85793 233.92354 199.54132 233.28607 199.15625 232.65625 z M 144.65625 232.84375 L 139.4375 238.0625 L 142.1875 238.0625 L 146.4375 233.8125 C 146.00751 233.22123 145.41817 232.7942 144.65625 232.84375 z M 112.53125 233.9375 L 108.71875 237.75 C 108.712 237.82395 108.72594 237.89472 108.71875 237.96875 L 111.15625 238.0625 L 112.65625 236.5625 C 112.62151 235.68871 112.56365 234.81038 112.53125 233.9375 z M 171.625 236.90625 L 170.8125 237.71875 L 171.875 237.71875 C 171.79903 237.47191 171.71082 237.18797 171.625 236.90625 z "
     id="use8367" />
  <path
     sodipodi:nodetypes="cccccccccccc"
     inkscape:connector-curvature="0"
     id="path7960"
     d="m 99.355898,256.16958 c 6.340372,-5.81518 1.535502,-16.39645 -1.125,-17.625 -1.48803,-17.79415 -6.929,-29.2636 -13.375,-39.125 -0.87156,-10.89878 -7.049171,-10.83172 -12.750001,-11.75 -10.422229,-6.19826 -20.211099,-12.95071 -38.374999,-12.375 -3.09952,-4.11191 -7.95706,-7.21045 -17.375,-1.75 l -0.125,12.375 -3.5,2.625 0,73.125 71.25,0 2.99207,-5.18241 z"
     style="fill:#e9e6e1;stroke:#000000;stroke-width:1px;stroke-linecap:butt;stroke-linejoin:miter;stroke-opacity:1;fill-opacity:1" />
  <path
     style="fill:#c3c0b2;stroke:none;stroke-width:1px;stroke-linecap:butt;stroke-linejoin:miter;stroke-opacity:1;fill-opacity:1"
     d="m 33.14563,175.42447 -0.353553,6.98268 c 15.309669,-1.97227 26.234673,2.63245 35.443728,9.8111 l 4.065864,-4.41941 C 61.884656,182.25115 54.671269,174.9735 33.14563,175.42447 z"
     id="path9466"
     inkscape:connector-curvature="0"
     sodipodi:nodetypes="ccccc" />
  <path
     style="fill:#c3c0b2;stroke:none;stroke-width:1px;stroke-linecap:butt;stroke-linejoin:miter;stroke-opacity:1;fill-opacity:1"
     d="m 79.72629,203.44357 4.772971,-3.88908 c 10.916605,16.00112 12.66937,28.19947 13.34664,39.95153 l -7.513009,0.17678 C 94.033533,221.40062 87.388699,211.98599 79.72629,203.44357 z"
     id="path9468"
     inkscape:connector-curvature="0"
     sodipodi:nodetypes="ccccc" />
  <path
     style="fill:#f8e7db;stroke:#000000;stroke-width:1px;stroke-linecap:butt;stroke-linejoin:miter;stroke-opacity:1;fill-opacity:1"
     d="m 179.375,12.97487 c -6.34037,5.81518 -1.5355,16.39645 1.125,17.625 1.48803,17.79415 6.929,29.2636 13.375,39.125 0.87156,10.89878 7.04917,10.83172 12.75,11.75 10.42223,6.19826 20.2111,12.95071 38.375,12.375 3.09952,4.11191 7.95706,7.21045 17.375,1.75 l 0.125,-12.375 3.5,-2.625 0,-73.125 -71.25,0 -2.99207,5.18241 z"
     id="path9477"
     inkscape:connector-curvature="0"
     sodipodi:nodetypes="cccccccccccc" />
  <path
     sodipodi:nodetypes="ccccc"
     inkscape:connector-curvature="0"
     id="path9479"
     d="m 245.58527,93.71998 0.35355,-6.98268 c -15.30967,1.97227 -26.23467,-2.63245 -35.44372,-9.8111 l -4.06587,4.41941 c 10.41701,5.54769 17.6304,12.82534 39.15604,12.37437 z"
     style="fill:#e1c9b9;stroke:none;stroke-width:1px;stroke-linecap:butt;stroke-linejoin:miter;stroke-opacity:1;fill-opacity:1" />
  <path
     sodipodi:nodetypes="ccccc"
     inkscape:connector-curvature="0"
     id="path9481"
     d="m 199.00461,65.70088 -4.77297,3.88908 C 183.31503,53.58884 181.56227,41.39049 180.885,29.63843 l 7.51301,-0.17678 c -3.70064,18.28218 2.94419,27.69681 10.6066,36.23923 z"
     style="fill:#e1c9b9;stroke:none;stroke-width:1px;stroke-linecap:butt;stroke-linejoin:miter;stroke-opacity:1;fill-opacity:1" />
  <g
     id="g9577"
     style="stroke-width:0.40000000000000002;stroke-miterlimit:4;stroke-dasharray:none;stroke:#9fabb7;stroke-opacity:1">
    <path
       inkscape:connector-curvature="0"
       id="path9501"
       d="m 57.452426,51.150451 c 5.486617,4.028369 5.0596,11.06052 7.601398,16.617009"
       style="fill:none;stroke:#9fabb7;stroke-width:0.40000000000000002;stroke-linecap:butt;stroke-linejoin:miter;stroke-opacity:1;stroke-miterlimit:4;stroke-dasharray:none" />
    <path
       inkscape:connector-curvature="0"
       id="path9503"
       d="m 56.038213,55.923422 c 1.532896,3.852328 3.8155,7.384839 5.480077,10.606601"
       style="fill:none;stroke:#9fabb7;stroke-width:0.40000000000000002;stroke-linecap:butt;stroke-linejoin:miter;stroke-opacity:1;stroke-miterlimit:4;stroke-dasharray:none" />
    <path
       inkscape:connector-curvature="0"
       id="path9505"
       d="m 64.877047,70.772664 c 3.729229,1.241905 4.686066,6.15883 6.187185,8.131728"
       style="fill:none;stroke:#9fabb7;stroke-width:0.40000000000000002;stroke-linecap:butt;stroke-linejoin:miter;stroke-opacity:1;stroke-miterlimit:4;stroke-dasharray:none" />
    <path
       inkscape:connector-curvature="0"
       id="path9507"
       d="m 65.937707,76.075965 c 0.990422,2.237131 2.457896,3.686843 3.535534,5.303301"
       style="fill:none;stroke:#9fabb7;stroke-width:0.40000000000000002;stroke-linecap:butt;stroke-linejoin:miter;stroke-opacity:1;stroke-miterlimit:4;stroke-dasharray:none" />
    <path
       inkscape:connector-curvature="0"
       id="path9509"
       d="m 72.124892,80.848936 c 2.025535,6.638043 9.956589,10.087597 13.435029,13.611805"
       style="fill:none;stroke:#9fabb7;stroke-width:0.40000000000000002;stroke-linecap:butt;stroke-linejoin:miter;stroke-opacity:1;stroke-miterlimit:4;stroke-dasharray:none" />
    <path
       inkscape:connector-curvature="0"
       id="path9511"
       d="m 69.826795,87.03612 c 2.177862,1.063248 2.934345,3.056609 4.24264,4.419417"
       style="fill:none;stroke:#9fabb7;stroke-width:0.40000000000000002;stroke-linecap:butt;stroke-linejoin:miter;stroke-opacity:1;stroke-miterlimit:4;stroke-dasharray:none" />
    <path
       inkscape:connector-curvature="0"
       id="path9513"
       d="m 77.781746,96.228508 c 4.070032,1.38294 7.789816,4.523122 10.960155,6.363962"
       style="fill:none;stroke:#9fabb7;stroke-width:0.40000000000000002;stroke-linecap:butt;stroke-linejoin:miter;stroke-opacity:1;stroke-miterlimit:4;stroke-dasharray:none" />
    <path
       inkscape:connector-curvature="0"
       id="path9515"
       d="m 88.034794,91.985868 c 2.236637,2.716029 5.821625,4.429497 8.131728,6.187184"
       style="fill:none;stroke:#9fabb7;stroke-width:0.40000000000000002;stroke-linecap:butt;stroke-linejoin:miter;stroke-opacity:1;stroke-miterlimit:4;stroke-dasharray:none" />
    <path
       inkscape:connector-curvature="0"
       id="path9517"
       d="m 95.105862,102.59247 c 4.720332,0.65479 8.321638,4.53908 11.667258,6.36396"
       style="fill:none;stroke:#9fabb7;stroke-width:0.40000000000000002;stroke-linecap:butt;stroke-linejoin:miter;stroke-opacity:1;stroke-miterlimit:4;stroke-dasharray:none" />
    <path
       inkscape:connector-curvature="0"
       id="path9519"
       d="m 110.13188,105.59767 c 1.996,2.68559 4.2707,5.00282 6.18719,7.24785"
       style="fill:none;stroke:#9fabb7;stroke-width:0.40000000000000002;stroke-linecap:butt;stroke-linejoin:miter;stroke-opacity:1;stroke-miterlimit:4;stroke-dasharray:none" />
    <path
       inkscape:connector-curvature="0"
       id="path9521"
       d="m 121.26881,120.27014 c 3.03872,2.0354 3.89266,5.23075 5.65686,7.6014"
       style="fill:none;stroke:#9fabb7;stroke-width:0.40000000000000002;stroke-linecap:butt;stroke-linejoin:miter;stroke-opacity:1;stroke-miterlimit:4;stroke-dasharray:none" />
    <path
       inkscape:connector-curvature="0"
       id="path9523"
       d="m 120.56171,111.4313 c 4.28457,1.0043 5.20112,5.96227 7.24784,8.30851"
       style="fill:none;stroke:#9fabb7;stroke-width:0.40000000000000002;stroke-linecap:butt;stroke-linejoin:miter;stroke-opacity:1;stroke-miterlimit:4;stroke-dasharray:none" />
    <path
       inkscape:connector-curvature="0"
       id="path9531"
       d="m 89.802561,77.313402 c 3.007077,-7.040386 15.301679,0.639476 8.131728,3.71231"
       style="fill:none;stroke:#9fabb7;stroke-width:0.40000000000000002;stroke-linecap:butt;stroke-linejoin:miter;stroke-opacity:1;stroke-miterlimit:4;stroke-dasharray:none" />
    <path
       inkscape:connector-curvature="0"
       id="path9533"
       d="m 94.221979,77.136625 c 0.299321,-0.397602 1.728619,0.645021 2.65165,1.414214"
       style="fill:none;stroke:#9fabb7;stroke-width:0.40000000000000002;stroke-linecap:butt;stroke-linejoin:miter;stroke-opacity:1;stroke-miterlimit:4;stroke-dasharray:none" />
    <path
       inkscape:connector-curvature="0"
       id="path9535"
       d="m 89.625785,81.379266 c -1.097151,4.288266 4.04306,4.567682 5.480077,4.772971"
       style="fill:none;stroke:#9fabb7;stroke-width:0.40000000000000002;stroke-linecap:butt;stroke-linejoin:miter;stroke-opacity:1;stroke-miterlimit:4;stroke-dasharray:none" />
    <path
       inkscape:connector-curvature="0"
       id="path9537"
       d="m 52.325902,50.443344 c -1.209142,2.972583 0.905494,5.682787 2.65165,7.778175"
       style="fill:none;stroke:#9fabb7;stroke-width:0.40000000000000002;stroke-linecap:butt;stroke-linejoin:miter;stroke-opacity:1;stroke-miterlimit:4;stroke-dasharray:none" />
    <path
       inkscape:connector-curvature="0"
       id="path9539"
       d="m 223.44574,218.91153 c -0.98138,-3.88138 -2.45597,-7.18653 -5.65685,-9.01561"
       style="fill:none;stroke:#9fabb7;stroke-width:0.40000000000000002;stroke-linecap:butt;stroke-linejoin:miter;stroke-opacity:1;stroke-miterlimit:4;stroke-dasharray:none" />
    <path
       inkscape:connector-curvature="0"
       id="path9541"
       d="m 227.15805,214.49212 c -0.0867,-3.01034 -1.66384,-6.79037 -3.53553,-8.66206"
       style="fill:none;stroke:#9fabb7;stroke-width:0.40000000000000002;stroke-linecap:butt;stroke-linejoin:miter;stroke-opacity:1;stroke-miterlimit:4;stroke-dasharray:none" />
    <path
       inkscape:connector-curvature="0"
       id="path9543"
       d="m 216.72823,202.11775 c 2.2172,2.49911 3.36292,5.30746 4.77297,6.71751"
       style="fill:none;stroke:#9fabb7;stroke-width:0.40000000000000002;stroke-linecap:butt;stroke-linejoin:miter;stroke-opacity:1;stroke-miterlimit:4;stroke-dasharray:none" />
    <path
       inkscape:connector-curvature="0"
       id="path9545"
       d="m 210.18749,196.63767 c 0.89392,4.6669 5.18324,6.82089 3.71231,10.25305"
       style="fill:none;stroke:#9fabb7;stroke-width:0.40000000000000002;stroke-linecap:butt;stroke-linejoin:miter;stroke-opacity:1;stroke-miterlimit:4;stroke-dasharray:none" />
    <path
       inkscape:connector-curvature="0"
       id="path9547"
       d="m 213.72303,190.45049 c 0.83203,4.91733 4.41581,8.41024 6.54073,10.96015"
       style="fill:none;stroke:#9fabb7;stroke-width:0.40000000000000002;stroke-linecap:butt;stroke-linejoin:miter;stroke-opacity:1;stroke-miterlimit:4;stroke-dasharray:none" />
    <path
       inkscape:connector-curvature="0"
       id="path9549"
       d="m 206.12163,184.2633 c 2.60589,2.38383 2.54078,6.16994 4.06586,8.83884"
       style="fill:none;stroke:#9fabb7;stroke-width:0.40000000000000002;stroke-linecap:butt;stroke-linejoin:miter;stroke-opacity:1;stroke-miterlimit:4;stroke-dasharray:none" />
    <path
       inkscape:connector-curvature="0"
       id="path9551"
       d="m 208.5965,179.66711 c 1.40746,2.47029 3.11872,5.12001 4.41942,7.07107"
       style="fill:none;stroke:#9fabb7;stroke-width:0.40000000000000002;stroke-linecap:butt;stroke-linejoin:miter;stroke-opacity:1;stroke-miterlimit:4;stroke-dasharray:none" />
    <path
       inkscape:connector-curvature="0"
       id="path9553"
       d="m 201.87899,182.31876 c -2.88644,-5.90894 -9.50252,-5.96698 -13.61181,-10.07627"
       style="fill:none;stroke:#9fabb7;stroke-width:0.40000000000000002;stroke-linecap:butt;stroke-linejoin:miter;stroke-opacity:1;stroke-miterlimit:4;stroke-dasharray:none" />
    <path
       inkscape:connector-curvature="0"
       id="path9555"
       d="m 205.23774,177.19223 c -3.02507,-4.60998 -8.95319,-4.76772 -11.66726,-8.83883"
       style="fill:none;stroke:#9fabb7;stroke-width:0.40000000000000002;stroke-linecap:butt;stroke-linejoin:miter;stroke-opacity:1;stroke-miterlimit:4;stroke-dasharray:none" />
    <path
       inkscape:connector-curvature="0"
       id="path9557"
       d="m 183.14066,164.81787 c 2.60977,2.83538 5.67265,4.37568 8.66205,5.65685"
       style="fill:none;stroke:#9fabb7;stroke-width:0.40000000000000002;stroke-linecap:butt;stroke-linejoin:miter;stroke-opacity:1;stroke-miterlimit:4;stroke-dasharray:none" />
    <path
       inkscape:connector-curvature="0"
       id="path9559"
       d="M 179.7819,169.59084 C 167.72815,165.25312 161.71526,155.5665 153.08862,148.37763"
       style="fill:none;stroke:#9fabb7;stroke-width:0.40000000000000002;stroke-linecap:butt;stroke-linejoin:miter;stroke-opacity:1;stroke-miterlimit:4;stroke-dasharray:none" />
    <path
       inkscape:connector-curvature="0"
       id="path9561"
       d="m 168.11464,157.03969 c 3.22452,2.12969 5.55934,5.37646 9.01561,6.36396"
       style="fill:none;stroke:#9fabb7;stroke-width:0.40000000000000002;stroke-linecap:butt;stroke-linejoin:miter;stroke-opacity:1;stroke-miterlimit:4;stroke-dasharray:none" />
    <path
       inkscape:connector-curvature="0"
       id="path9563"
       d="m 181.37289,160.0449 c 1.47627,1.98434 3.56544,3.08406 5.3033,4.24264"
       style="fill:none;stroke:#9fabb7;stroke-width:0.40000000000000002;stroke-linecap:butt;stroke-linejoin:miter;stroke-opacity:1;stroke-miterlimit:4;stroke-dasharray:none" />
    <path
       inkscape:connector-curvature="0"
       id="path9565"
       d="m 152.38151,143.60466 c 1.45974,0.38748 2.98929,1.75185 3.53554,2.2981"
       style="fill:none;stroke:#9fabb7;stroke-width:0.40000000000000002;stroke-linecap:butt;stroke-linejoin:miter;stroke-opacity:1;stroke-miterlimit:4;stroke-dasharray:none" />
    <path
       inkscape:connector-curvature="0"
       id="path9567"
       d="m 185.61553,183.73297 c -6.98024,2.74092 0.66338,12.95718 4.24264,8.66206"
       style="fill:none;stroke:#9fabb7;stroke-width:0.40000000000000002;stroke-linecap:butt;stroke-linejoin:miter;stroke-opacity:1;stroke-miterlimit:4;stroke-dasharray:none" />
    <path
       inkscape:connector-curvature="0"
       id="path9569"
       d="m 185.79231,186.20785 c 1.18585,0.68113 1.49065,2.47725 1.59099,2.82842"
       style="fill:none;stroke:#9fabb7;stroke-width:0.40000000000000002;stroke-linecap:butt;stroke-linejoin:miter;stroke-opacity:1;stroke-miterlimit:4;stroke-dasharray:none" />
    <path
       inkscape:connector-curvature="0"
       id="path9571"
       d="m 189.50462,181.61165 c 2.72996,1.50919 2.65165,4.02346 2.65165,7.07107"
       style="fill:none;stroke:#9fabb7;stroke-width:0.40000000000000002;stroke-linecap:butt;stroke-linejoin:miter;stroke-opacity:1;stroke-miterlimit:4;stroke-dasharray:none" />
    <path
       inkscape:connector-curvature="0"
       id="path9573"
       d="m 188.62073,195.57701 c 2.44334,-0.0401 2.36348,-1.20111 2.82843,-2.82843"
       style="fill:none;stroke:#9fabb7;stroke-width:0.40000000000000002;stroke-linecap:butt;stroke-linejoin:miter;stroke-opacity:1;stroke-miterlimit:4;stroke-dasharray:none" />
    <path
       inkscape:connector-curvature="0"
       id="path9575"
       d="m 179.7819,186.20785 c -0.28507,2.14834 0.17567,3.67562 1.23744,4.94974"
       style="fill:none;stroke:#9fabb7;stroke-width:0.40000000000000002;stroke-linecap:butt;stroke-linejoin:miter;stroke-opacity:1;stroke-miterlimit:4;stroke-dasharray:none" />
  </g>
</svg>
